<?xml version="1.0" encoding="utf-8"?>
<!-- Generator: Adobe Illustrator 27.8.1, SVG Export Plug-In . SVG Version: 6.00 Build 0)  -->
<svg version="1.2" baseProfile="tiny" id="g-ai2html-responsive-_700-interactions-img" xmlns="http://www.w3.org/2000/svg" xmlns:xlink="http://www.w3.org/1999/xlink"
	 x="0px" y="0px" viewBox="0 0 700 393.75" overflow="visible" xml:space="preserve">
<g>
	<g id="movements_00000054970346171795081210000004338290075065207999_">
		<path fill="none" stroke="#EF4960" stroke-width="2" stroke-miterlimit="10" d="M1279.49,115.381
			c0,0-195.699-78.876-318.042,26.291"/>
		<path fill="none" stroke="#EF4960" stroke-width="2" stroke-miterlimit="10" d="M1278.365,123.366
			c0,0-159.326-45.722-268.279,39.784"/>
		<path fill="none" stroke="#EF4960" stroke-width="2" stroke-miterlimit="10" d="M1279.134,129.64
			c0,0-108.881-6.156-200.495,53.465"/>
		<path fill="none" stroke="#EF4960" stroke-width="2" stroke-miterlimit="10" d="M1313.237,133.962
			c0,0,36.248,24.567,42.722,103.31"/>
		<path fill="none" stroke="#EF4960" stroke-width="2" stroke-miterlimit="10" d="M1306.97,140.347
			c6.866,12.836,20.704,47.981,13.296,97.064"/>
		<path fill="none" stroke="#EF4960" stroke-width="2" stroke-miterlimit="10" d="M1295.949,143.004
			c15.345,28.911-6.438,64.636-23.716,91.751"/>
		<path fill="none" stroke="#EF4960" stroke-width="2" stroke-miterlimit="10" d="M1282.561,137.217
			c0,0-100.689,13.455-109.989,83.975"/>
		<path fill="none" stroke="#EF4960" stroke-width="1.5" stroke-miterlimit="10" d="M390.376,85.794
			c0,0-141.978-57.224-230.736,19.074"/>
		<path fill="none" stroke="#EF4960" stroke-width="1.5" stroke-miterlimit="10" d="M389.56,91.587
			c0,0-115.589-33.171-194.634,28.863"/>
		<path fill="none" stroke="#EF4960" stroke-width="1.5" stroke-miterlimit="10" d="M390.118,96.139
			c0,0-78.992-4.466-145.457,38.788"/>
		<path fill="none" stroke="#EF4960" stroke-width="1.5" stroke-miterlimit="10" d="M414.86,99.275c0,0,26.298,17.823,30.995,74.95"
			/>
		<path fill="none" stroke="#EF4960" stroke-width="1.5" stroke-miterlimit="10" d="M410.313,103.907
			c4.981,9.312,15.021,34.809,9.646,70.419"/>
		<path fill="none" stroke="#EF4960" stroke-width="1.5" stroke-miterlimit="10" d="M402.318,105.835
			c11.132,20.975-4.671,46.893-17.206,66.565"/>
		<path fill="none" stroke="#EF4960" stroke-width="1.5" stroke-miterlimit="10" d="M392.604,101.636
			c0,0-73.049,9.762-79.796,60.923"/>
		<path fill="none" stroke="#EF4960" stroke-miterlimit="10" d="M-269.173,58.566c0,0-97.342-39.233-158.195,13.077"/>
		<path fill="none" stroke="#EF4960" stroke-miterlimit="10" d="M-269.732,62.538c0,0-79.249-22.742-133.443,19.789"/>
		<path fill="none" stroke="#EF4960" stroke-miterlimit="10" d="M-269.35,65.659c0,0-54.158-3.062-99.727,26.593"/>
		<path fill="none" stroke="#EF4960" stroke-miterlimit="10" d="M-252.387,67.808c0,0,18.03,12.22,21.25,51.387"/>
		<path fill="none" stroke="#EF4960" stroke-miterlimit="10" d="M-255.504,70.984c3.415,6.385,10.298,23.866,6.613,48.28"/>
		<path fill="none" stroke="#EF4960" stroke-miterlimit="10" d="M-260.986,72.306c7.632,14.38-3.202,32.15-11.796,45.637"/>
		<path fill="none" stroke="#EF4960" stroke-miterlimit="10" d="M-267.645,69.427c0,0-50.083,6.693-54.709,41.77"/>
	</g>
</g>
<style>
#g-ai2html-responsive-_700-interactions-img rect, #g-ai2html-responsive-_700-interactions-img circle, #g-ai2html-responsive-_700-interactions-img path, #g-ai2html-responsive-_700-interactions-img line, #g-ai2html-responsive-_700-interactions-img polyline { vector-effect: non-scaling-stroke; }
</style>
</svg>

