<?xml version="1.0" encoding="utf-8"?>
<!-- Generator: Adobe Illustrator 27.8.1, SVG Export Plug-In . SVG Version: 6.00 Build 0)  -->
<svg version="1.2" baseProfile="tiny" id="g-ai2html-responsive_2-_700-interactions-img" xmlns="http://www.w3.org/2000/svg" xmlns:xlink="http://www.w3.org/1999/xlink"
	 x="0px" y="0px" viewBox="0 0 700 393.75" overflow="visible" xml:space="preserve">
<g>
	<g id="movements_00000067233488699407282720000009612903435320392324_">
		<path fill="none" stroke="#EF4960" stroke-width="2" stroke-miterlimit="10" d="M1279.49,115.381
			c0,0-195.699-78.876-318.042,26.291"/>
		<path fill="none" stroke="#EF4960" stroke-width="2" stroke-miterlimit="10" d="M1278.365,123.366
			c0,0-159.326-45.722-268.279,39.784"/>
		<path fill="none" stroke="#EF4960" stroke-width="2" stroke-miterlimit="10" d="M1279.134,129.64
			c0,0-108.881-6.156-200.495,53.465"/>
		<path fill="none" stroke="#EF4960" stroke-width="2" stroke-miterlimit="10" d="M1313.237,133.962
			c0,0,36.248,24.567,42.722,103.31"/>
		<path fill="none" stroke="#EF4960" stroke-width="2" stroke-miterlimit="10" d="M1306.97,140.347
			c6.866,12.836,20.704,47.981,13.296,97.064"/>
		<path fill="none" stroke="#EF4960" stroke-width="2" stroke-miterlimit="10" d="M1295.949,143.004
			c15.345,28.911-6.438,64.636-23.716,91.751"/>
		<path fill="none" stroke="#EF4960" stroke-width="2" stroke-miterlimit="10" d="M1282.561,137.217
			c0,0-100.689,13.455-109.989,83.975"/>
		<path fill="none" stroke="#EF4960" stroke-width="1.5" stroke-miterlimit="10" d="M390.376,85.794
			c0,0-141.978-57.224-230.736,19.074"/>
		<path fill="none" stroke="#EF4960" stroke-width="1.5" stroke-miterlimit="10" d="M389.56,91.587
			c0,0-115.589-33.171-194.634,28.863"/>
		<path fill="none" stroke="#EF4960" stroke-width="1.5" stroke-miterlimit="10" d="M390.118,96.139
			c0,0-78.992-4.466-145.457,38.788"/>
		<path fill="none" stroke="#EF4960" stroke-width="1.5" stroke-miterlimit="10" d="M414.86,99.275c0,0,26.298,17.823,30.995,74.95"
			/>
		<path fill="none" stroke="#EF4960" stroke-width="1.5" stroke-miterlimit="10" d="M410.313,103.907
			c4.981,9.312,15.021,34.809,9.646,70.419"/>
		<path fill="none" stroke="#EF4960" stroke-width="1.5" stroke-miterlimit="10" d="M402.318,105.835
			c11.132,20.975-4.671,46.893-17.206,66.565"/>
		<path fill="none" stroke="#EF4960" stroke-width="1.5" stroke-miterlimit="10" d="M392.604,101.636
			c0,0-73.049,9.762-79.796,60.923"/>
		<path fill="none" stroke="#EF4960" stroke-miterlimit="10" d="M2510.487,156.176c0,0-259.578-104.622-421.854,34.873"/>
		<path fill="none" stroke="#EF4960" stroke-miterlimit="10" d="M2508.995,166.767c0,0-211.331-60.646-355.847,52.769"/>
		<path fill="none" stroke="#EF4960" stroke-miterlimit="10" d="M2510.014,175.09c0,0-144.421-8.165-265.938,70.916"/>
		<path fill="none" stroke="#EF4960" stroke-miterlimit="10" d="M2555.25,180.822c0,0,48.08,32.585,56.667,137.031"/>
		<path fill="none" stroke="#EF4960" stroke-miterlimit="10" d="M2546.937,189.292c9.107,17.026,27.462,63.642,17.636,128.747"/>
		<path fill="none" stroke="#EF4960" stroke-miterlimit="10" d="M2532.319,192.815c20.353,38.348-8.54,85.733-31.457,121.7"/>
		<path fill="none" stroke="#EF4960" stroke-miterlimit="10" d="M2514.561,185.139c0,0-133.554,17.847-145.891,111.386"/>
	</g>
</g>
<style>
#g-ai2html-responsive_2-_700-interactions-img rect, #g-ai2html-responsive_2-_700-interactions-img circle, #g-ai2html-responsive_2-_700-interactions-img path, #g-ai2html-responsive_2-_700-interactions-img line, #g-ai2html-responsive_2-_700-interactions-img polyline { vector-effect: non-scaling-stroke; }
</style>
</svg>

