<?xml version="1.0" encoding="utf-8"?>
<!-- Generator: Adobe Illustrator 27.8.1, SVG Export Plug-In . SVG Version: 6.00 Build 0)  -->
<svg version="1.2" baseProfile="tiny" id="g-ai2html-responsive-_480-interactions-img" xmlns="http://www.w3.org/2000/svg" xmlns:xlink="http://www.w3.org/1999/xlink"
	 x="0px" y="0px" viewBox="0 0 480 270" overflow="visible" xml:space="preserve">
<g>
	
		<path id="bubble-5_00000066503234297104255510000002198506491073542043_" fill="#0072BB" fill-opacity="0.3" stroke="#0072BB" stroke-width="0.5" stroke-miterlimit="10" d="
		M231.484,8.838c5.88,0,10.646,4.767,10.646,10.647s-4.766,10.647-10.646,10.647s-10.646-4.767-10.646-10.647
		S225.604,8.838,231.484,8.838L231.484,8.838"/>
	
		<path id="bubble-4_00000178907553122444972530000004172439470345613991_" fill="#0072BB" fill-opacity="0.3" stroke="#0072BB" stroke-width="0.5" stroke-miterlimit="10" d="
		M227.598,244.509c5.497,0,9.953,4.457,9.953,9.955s-4.456,9.955-9.953,9.955s-9.953-4.457-9.953-9.955
		S222.101,244.509,227.598,244.509L227.598,244.509"/>
	
		<path id="bubble-3_00000108988105566433171740000014881014592603249333_" fill="#0072BB" fill-opacity="0.3" stroke="#0072BB" stroke-width="0.5" stroke-miterlimit="10" d="
		M313.774,208.211c1.975,0,3.577,1.602,3.577,3.577s-1.601,3.577-3.577,3.577c-1.975,0-3.577-1.602-3.577-3.577
		S311.799,208.211,313.774,208.211L313.774,208.211"/>
	
		<path id="bubble-2_00000118356137742513308110000010035829387557471930_" fill="#0072BB" fill-opacity="0.3" stroke="#0072BB" stroke-width="0.5" stroke-miterlimit="10" d="
		M95.018,240.27c1.422,0,2.574,1.153,2.574,2.574c0,1.422-1.152,2.574-2.574,2.574s-2.574-1.153-2.574-2.574
		C92.444,241.423,93.596,240.27,95.018,240.27L95.018,240.27"/>
	
		<path id="bubble-1_00000095307349949387872110000009618253024083674543_" fill="#0072BB" fill-opacity="0.3" stroke="#0072BB" stroke-width="0.5" stroke-miterlimit="10" d="
		M41.168,168.255c6.751,0,12.223,5.473,12.223,12.224s-5.472,12.224-12.223,12.224s-12.223-5.473-12.223-12.224
		S34.418,168.255,41.168,168.255L41.168,168.255"/>
	<g id="small_00000086658759457175336060000011056371832205587840_">
		
			<path id="arrow-11_00000113348439555453709550000009723290850505144470_" fill="none" stroke="#EE4860" stroke-width="5" stroke-linecap="round" stroke-linejoin="round" stroke-miterlimit="10" d="
			M213.56,70.005c0-10.83,4.217-19.632,14.556-24.091"/>
		
			<path id="arrow-10_00000137812046159855636130000012928626769290239395_" fill="none" stroke="#EE4860" stroke-width="2" stroke-linecap="round" stroke-linejoin="round" stroke-miterlimit="10" d="
			M280.151,170.421c0,0,12.669,2.554,21.072,10.414"/>
		
			<path id="arrow-9_00000080197056418046900500000011218817603602644899_" fill="none" stroke="#F28290" stroke-width="2" stroke-linecap="round" stroke-linejoin="round" stroke-miterlimit="10" d="
			M272.935,189.705c5.148,7.135,7.402,17.492,4.271,25.907"/>
		
			<path id="arrow-8_00000115497071363487383850000001573672288331380103_" fill="none" stroke="#B41F38" stroke-width="8" stroke-linecap="round" stroke-linejoin="round" stroke-miterlimit="10" d="
			M252.841,155.674c3.512,7.868,4.462,23.07,1.35,31.039"/>
		
			<path id="arrow-7_00000054945046344228584010000005044317815036813493_" fill="none" stroke="#F8BBC1" stroke-width="2" stroke-linecap="round" stroke-linejoin="round" stroke-miterlimit="10" d="
			M207.743,201.756c-1.911,4.663-4.831,17.281-1.864,27.532"/>
		
			<path id="arrow-6_00000045586654630592332800000013780217808506994089_" fill="none" stroke="#B41F38" stroke-width="2" stroke-linecap="round" stroke-linejoin="round" stroke-miterlimit="10" d="
			M130.757,202.659c-7.217,1.876-15.956,7.137-17.395,15.105"/>
		
			<path id="arrow-5_00000005972626582651350990000004604320261937671575_" fill="none" stroke="#EE4860" stroke-width="9" stroke-linecap="round" stroke-linejoin="round" stroke-miterlimit="10" d="
			M132.992,172.587c-5.669-3.181-16.047-7.239-32.25-1.277"/>
		
			<path id="arrow-4_00000083796531606130554220000001109684004570329736_" fill="none" stroke="#F8BBC1" stroke-width="2" stroke-linecap="round" stroke-linejoin="round" stroke-miterlimit="10" d="
			M112.441,180.835c-4.742-2.683-10.797-3.063-16.007-1.675"/>
		
			<path id="arrow-3_00000121240026648154195270000008936953045548200377_" fill="none" stroke="#F8BBC1" stroke-width="3" stroke-linecap="round" stroke-linejoin="round" stroke-miterlimit="10" d="
			M113.349,185.627c-5.737-2.934-12.57-3.382-18.724-1.55"/>
		
			<path id="arrow-2_00000024682638277084819590000004975244045103782303_" fill="none" stroke="#F8BBC1" stroke-width="2" stroke-linecap="round" stroke-linejoin="round" stroke-miterlimit="10" d="
			M109.746,189.448c-4.995-1.778-10.958-3.021-16.063-0.973"/>
		
			<path id="arrow-1_00000177476016771891695200000004027890331128093608_" fill="none" stroke="#EE4860" stroke-width="5" stroke-linecap="round" stroke-linejoin="round" stroke-miterlimit="10" d="
			M253.556,70.005c0-10.83-4.217-19.632-14.556-24.091"/>
	</g>
</g>
<style>
#g-ai2html-responsive-_480-interactions-img rect, #g-ai2html-responsive-_480-interactions-img circle, #g-ai2html-responsive-_480-interactions-img path, #g-ai2html-responsive-_480-interactions-img line, #g-ai2html-responsive-_480-interactions-img polyline { vector-effect: non-scaling-stroke; }
</style>
</svg>

