<?xml version="1.0" encoding="utf-8"?>
<!-- Generator: Adobe Illustrator 27.8.1, SVG Export Plug-In . SVG Version: 6.00 Build 0)  -->
<svg version="1.2" baseProfile="tiny" id="g-ai2html-responsive-_480-interactions-img" xmlns="http://www.w3.org/2000/svg" xmlns:xlink="http://www.w3.org/1999/xlink"
	 x="0px" y="0px" viewBox="0 0 480 270" overflow="visible" xml:space="preserve">
<g>
	
		<path id="bubble-5_00000054242282552102134800000012024334883967269536_" fill="#0072BB" fill-opacity="0.3" stroke="#0072BB" stroke-width="0.5" stroke-miterlimit="10" d="
		M231.484,8.838c5.88,0,10.646,4.767,10.646,10.647s-4.766,10.647-10.646,10.647s-10.646-4.767-10.646-10.647
		S225.604,8.838,231.484,8.838L231.484,8.838"/>
	
		<path id="bubble-4_00000181784760042503117240000013303849685307854485_" fill="#0072BB" fill-opacity="0.3" stroke="#0072BB" stroke-width="0.5" stroke-miterlimit="10" d="
		M227.598,244.509c5.497,0,9.953,4.457,9.953,9.955s-4.456,9.955-9.953,9.955s-9.953-4.457-9.953-9.955
		S222.101,244.509,227.598,244.509L227.598,244.509"/>
	
		<path id="bubble-3_00000139256421007684338030000003786810391724458401_" fill="#0072BB" fill-opacity="0.3" stroke="#0072BB" stroke-width="0.5" stroke-miterlimit="10" d="
		M313.774,208.211c1.975,0,3.577,1.602,3.577,3.577s-1.601,3.577-3.577,3.577c-1.975,0-3.577-1.602-3.577-3.577
		S311.799,208.211,313.774,208.211L313.774,208.211"/>
	
		<path id="bubble-2_00000130645428075577357740000000771707446822883764_" fill="#0072BB" fill-opacity="0.3" stroke="#0072BB" stroke-width="0.5" stroke-miterlimit="10" d="
		M95.018,240.27c1.422,0,2.574,1.153,2.574,2.574c0,1.422-1.152,2.574-2.574,2.574s-2.574-1.153-2.574-2.574
		C92.444,241.423,93.596,240.27,95.018,240.27L95.018,240.27"/>
	
		<path id="bubble-1_00000000926522900857603040000005603941695215844026_" fill="#0072BB" fill-opacity="0.3" stroke="#0072BB" stroke-width="0.5" stroke-miterlimit="10" d="
		M41.168,168.255c6.751,0,12.223,5.473,12.223,12.224s-5.472,12.224-12.223,12.224s-12.223-5.473-12.223-12.224
		S34.418,168.255,41.168,168.255L41.168,168.255"/>
	<g id="small_00000031923097889522370650000011827450190727528359_">
		
			<path id="arrow-11_00000095332224630688727520000016458970827717515951_" fill="none" stroke="#EE4860" stroke-width="5" stroke-linecap="round" stroke-linejoin="round" stroke-miterlimit="10" d="
			M213.56,70.005c0-10.83,4.217-19.632,14.556-24.091"/>
		
			<path id="arrow-10_00000021816736117658254140000001304879042648223895_" fill="none" stroke="#EE4860" stroke-width="2" stroke-linecap="round" stroke-linejoin="round" stroke-miterlimit="10" d="
			M280.151,170.421c0,0,12.669,2.554,21.072,10.414"/>
		
			<path id="arrow-9_00000029754636257300179950000016979844239470982035_" fill="none" stroke="#F28290" stroke-width="2" stroke-linecap="round" stroke-linejoin="round" stroke-miterlimit="10" d="
			M272.935,189.705c5.148,7.135,7.402,17.492,4.271,25.907"/>
		
			<path id="arrow-8_00000151517812749245455380000005497690035916556452_" fill="none" stroke="#B41F38" stroke-width="8" stroke-linecap="round" stroke-linejoin="round" stroke-miterlimit="10" d="
			M252.841,155.674c3.512,7.868,4.462,23.07,1.35,31.039"/>
		
			<path id="arrow-7_00000114760579408223709540000005949771209953161883_" fill="none" stroke="#F8BBC1" stroke-width="2" stroke-linecap="round" stroke-linejoin="round" stroke-miterlimit="10" d="
			M207.743,201.756c-1.911,4.663-4.831,17.281-1.864,27.532"/>
		
			<path id="arrow-6_00000093171353219213906830000005017711599787628687_" fill="none" stroke="#B41F38" stroke-width="2" stroke-linecap="round" stroke-linejoin="round" stroke-miterlimit="10" d="
			M130.757,202.659c-7.217,1.876-15.956,7.137-17.395,15.105"/>
		
			<path id="arrow-5_00000109716769757099366870000005174557788008135582_" fill="none" stroke="#EE4860" stroke-width="9" stroke-linecap="round" stroke-linejoin="round" stroke-miterlimit="10" d="
			M132.992,172.587c-5.669-3.181-16.047-7.239-32.25-1.277"/>
		
			<path id="arrow-4_00000008144659800861386640000001746752349928972718_" fill="none" stroke="#F8BBC1" stroke-width="2" stroke-linecap="round" stroke-linejoin="round" stroke-miterlimit="10" d="
			M112.441,180.835c-4.742-2.683-10.797-3.063-16.007-1.675"/>
		
			<path id="arrow-3_00000166634861023574698020000006047490829869510041_" fill="none" stroke="#F8BBC1" stroke-width="3" stroke-linecap="round" stroke-linejoin="round" stroke-miterlimit="10" d="
			M113.349,185.627c-5.737-2.934-12.57-3.382-18.724-1.55"/>
		
			<path id="arrow-2_00000045606824341271518050000011815393107588429227_" fill="none" stroke="#F8BBC1" stroke-width="2" stroke-linecap="round" stroke-linejoin="round" stroke-miterlimit="10" d="
			M109.746,189.448c-4.995-1.778-10.958-3.021-16.063-0.973"/>
		
			<path id="arrow-1_00000181047900771734791190000004684003833626423949_" fill="none" stroke="#EE4860" stroke-width="5" stroke-linecap="round" stroke-linejoin="round" stroke-miterlimit="10" d="
			M253.556,70.005c0-10.83-4.217-19.632-14.556-24.091"/>
	</g>
</g>
<style>
#g-ai2html-responsive-_480-interactions-img rect, #g-ai2html-responsive-_480-interactions-img circle, #g-ai2html-responsive-_480-interactions-img path, #g-ai2html-responsive-_480-interactions-img line, #g-ai2html-responsive-_480-interactions-img polyline { vector-effect: non-scaling-stroke; }
</style>
</svg>

