<?xml version="1.0" encoding="utf-8"?>
<!-- Generator: Adobe Illustrator 27.8.1, SVG Export Plug-In . SVG Version: 6.00 Build 0)  -->
<svg version="1.2" baseProfile="tiny" id="g-ai2html-responsive-_960-interactions-img" xmlns="http://www.w3.org/2000/svg" xmlns:xlink="http://www.w3.org/1999/xlink"
	 x="0px" y="0px" viewBox="0 0 960 540" overflow="visible" xml:space="preserve">
<g>
	
		<path id="bubble-15_00000061435975939643549910000010058717689557007246_" fill="#0072BB" fill-opacity="0.3" stroke="#0072BB" stroke-width="0.5" stroke-miterlimit="10" d="
		M462.879,17.676c11.759,0,21.292,9.534,21.292,21.294s-9.533,21.294-21.292,21.294c-11.759,0-21.292-9.534-21.292-21.294
		S451.12,17.676,462.879,17.676L462.879,17.676"/>
	
		<path id="bubble-14_00000130604677136453234010000014028740638455088799_" fill="#0072BB" fill-opacity="0.3" stroke="#0072BB" stroke-width="0.5" stroke-miterlimit="10" d="
		M475.015,483.849c10.994,0,19.907,8.914,19.907,19.909s-8.913,19.909-19.907,19.909c-10.994,0-19.907-8.914-19.907-19.909
		S464.021,483.849,475.015,483.849L475.015,483.849"/>
	
		<path id="bubble-13_00000070089732651184524860000016404753922621671579_" fill="#0072BB" fill-opacity="0.3" stroke="#0072BB" stroke-width="0.5" stroke-miterlimit="10" d="
		M627.46,416.422c3.951,0,7.154,3.203,7.154,7.154s-3.203,7.154-7.154,7.154c-3.951,0-7.154-3.203-7.154-7.154
		S623.509,416.422,627.46,416.422L627.46,416.422"/>
	
		<path id="bubble-12_00000158719670891867899370000003405035694262389411_" fill="#0072BB" fill-opacity="0.3" stroke="#0072BB" stroke-width="0.5" stroke-miterlimit="10" d="
		M191.964,471.076c2.843,0,5.148,2.305,5.148,5.149c0,2.843-2.305,5.149-5.148,5.149s-5.148-2.305-5.148-5.149
		C186.816,473.381,189.121,471.076,191.964,471.076L191.964,471.076"/>
	
		<path id="bubble-11_00000018219708077478518270000015904392890629995921_" fill="#0072BB" fill-opacity="0.3" stroke="#0072BB" stroke-width="0.5" stroke-miterlimit="10" d="
		M106.695,336.51c13.501,0,24.446,10.946,24.446,24.449s-10.945,24.449-24.446,24.449s-24.446-10.946-24.446-24.449
		S93.193,336.51,106.695,336.51L106.695,336.51"/>
	<g id="arrow-33_00000059306306070708790600000007041774850879623828_">
		<path fill="#EE4860" d="M459.773,96.987c-0.801,4.153-1.997,8.243-3.693,12.12c-1.693,3.875-3.887,7.527-6.55,10.774
			c-2.658,3.25-5.776,6.084-9.189,8.434c-3.413,2.355-7.109,4.232-10.931,5.711c3.688-1.792,7.181-3.956,10.316-6.529
			c3.136-2.569,5.901-5.548,8.168-8.846c2.271-3.296,4.043-6.9,5.324-10.658c1.284-3.76,2.081-7.67,2.506-11.615
			c0.121-1.125,1.131-1.939,2.257-1.818s1.939,1.132,1.818,2.257C459.793,96.872,459.783,96.933,459.773,96.987z"/>
		<g>
			<path fill="#EE4860" d="M458.523,85.844c-2.292,4.947-6.016,11.016-9.742,14.666l8.777-2.415l8.289,3.759
				C462.739,97.665,460.011,91.088,458.523,85.844z"/>
		</g>
	</g>
	<g id="arrow-32_00000000187930035916958470000012010856518133641631_">
		<path fill="#EE4860" d="M600.137,367.797c-3.294-0.303-6.61-0.588-9.934-1.192c-1.66-0.283-3.321-0.733-4.936-1.321
			c-1.589-0.662-3.165-1.454-4.46-2.611c-2.682-2.223-4.388-5.227-5.775-8.224c-1.369-3.029-2.46-6.15-3.517-9.275
			c1.265,3.047,2.564,6.085,4.114,8.976c1.561,2.864,3.43,5.631,6.001,7.471c1.242,0.972,2.709,1.58,4.189,2.087
			c1.52,0.436,3.079,0.754,4.688,0.916c3.204,0.362,6.487,0.427,9.776,0.505l0.009,0c0.738,0.018,1.321,0.63,1.304,1.368
			c-0.018,0.738-0.63,1.321-1.368,1.304C600.198,367.802,600.166,367.8,600.137,367.797z"/>
		<g>
			<path fill="#EE4860" d="M605.092,366.727c-2.25-0.979-5.02-2.589-6.702-4.226l1.18,3.923l-1.603,3.769
				C599.818,368.749,602.748,367.452,605.092,366.727z"/>
		</g>
	</g>
	<g id="arrow-31_00000061454600723160284540000013490777919306241445_">
		<path fill="#F28290" d="M555.257,432.005c2.213-7.778,2.87-16.067,1.873-24.188c-1.002-8.103-3.706-16.125-8.501-22.899
			c5.163,6.498,8.374,14.471,9.851,22.694c1.474,8.243,1.287,16.81-0.578,25.07c-0.166,0.736-0.897,1.198-1.633,1.032
			c-0.736-0.166-1.198-0.897-1.032-1.633C555.243,432.058,555.251,432.027,555.257,432.005z"/>
		<g>
			<path fill="#F28290" d="M555.166,437.023c1.466-1.967,3.667-4.296,5.645-5.56l-4.089,0.253l-3.304-2.421
				C554.401,431.427,554.995,434.576,555.166,437.023z"/>
		</g>
	</g>
	<g id="arrow-30_00000135663418384326658230000013368086064853610400_">
		<path fill="#B41F38" d="M507.746,366.395c0.545-7.508,0.331-15.163-0.608-22.738c-0.478-3.788-1.149-7.561-2.098-11.274
			c-0.956-3.708-2.177-7.37-3.923-10.828c2.168,3.21,3.874,6.747,5.316,10.374c1.437,3.635,2.605,7.38,3.582,11.177
			c1.936,7.602,3.16,15.404,3.589,23.346c0.088,1.619-1.154,3.002-2.772,3.089c-1.619,0.088-3.002-1.154-3.089-2.772
			C507.736,366.65,507.738,366.512,507.746,366.395z"/>
		<g>
			<path fill="#B41F38" d="M508.772,383.22c3.725-7.619,9.713-16.937,15.626-22.493l-13.729,3.471l-12.77-6.114
				C502.598,364.699,506.628,375.016,508.772,383.22z"/>
		</g>
	</g>
	<g id="arrow-29_00000102510500035381973680000008610440135556240033_">
		<path fill="#F8BBC1" d="M407.816,455.688c-0.296-4.325-0.298-8.637-0.072-12.933c0.229-4.294,0.695-8.571,1.42-12.801
			c1.463-8.44,3.918-16.78,8.051-24.258c-3.724,7.688-5.698,16.059-6.696,24.453c-0.964,8.406-0.975,16.937,0.021,25.267
			l0.002,0.016c0.09,0.751-0.446,1.433-1.197,1.523s-1.433-0.446-1.523-1.197C407.82,455.735,407.818,455.709,407.816,455.688z"/>
		<g>
			<path fill="#F8BBC1" d="M409.852,460.393c0.547-2.392,1.621-5.411,2.92-7.365l-3.639,1.882l-4-0.881
				C406.893,455.582,408.707,458.223,409.852,460.393z"/>
		</g>
	</g>
	<g id="arrow-28_00000056426394149334587500000011648265604941320846_">
		<path fill="#B41F38" d="M227.697,436.404c4.677-5.781,10.361-10.71,16.83-14.262c3.235-1.762,6.681-3.157,10.266-3.962
			c3.577-0.807,7.303-0.999,10.889-0.368c-3.618-0.407-7.273,0.017-10.721,1.021c-3.456,1.005-6.72,2.57-9.751,4.472
			c-6.057,3.828-11.252,8.947-15.359,14.722l-0.005,0.007c-0.432,0.607-1.274,0.75-1.882,0.318c-0.607-0.432-0.75-1.274-0.318-1.882
			C227.661,436.449,227.68,436.425,227.697,436.404z"/>
		<g>
			<path fill="#B41F38" d="M226.014,441.253c2.011-1.405,4.833-2.923,7.108-3.499l-3.96-1.047l-2.373-3.338
				C227.05,435.701,226.622,438.877,226.014,441.253z"/>
		</g>
	</g>
	<g id="arrow-27_00000078745059610233764390000014198222831850584237_">
		<path fill="#EE4860" d="M208.807,341.152c4.365,0.418,8.659,1.237,12.808,2.431c4.148,1.205,8.146,2.781,11.972,4.636
			c7.671,3.696,14.578,8.582,20.922,13.968c-3.511-2.245-7.109-4.325-10.807-6.165c-3.693-1.848-7.506-3.413-11.38-4.688
			c-3.875-1.271-7.822-2.235-11.793-2.827c-3.973-0.58-7.962-0.788-11.906-0.634l-0.007,0c-1.86,0.073-3.426-1.376-3.499-3.236
			c-0.073-1.86,1.376-3.426,3.236-3.499C208.501,341.133,208.664,341.139,208.807,341.152z"/>
		<g>
			<path fill="#EE4860" d="M191.964,346.219c8.154,2.219,18.394,6.335,24.939,11.082l-5.967-12.786l3.593-13.642
				C208.935,336.709,199.592,342.585,191.964,346.219z"/>
		</g>
	</g>
	<g id="arrow-26_00000122721438641078941880000006164916268835382192_">
		<path fill="#F8BBC1" d="M193.239,357.796c2.409-0.15,4.859-0.128,7.275,0.241c2.416,0.374,4.748,1.125,6.932,2.086
			c2.19,0.96,4.26,2.095,6.318,3.235l6.167,3.421l-6.451-2.849c-2.148-0.947-4.3-1.882-6.494-2.614
			c-2.192-0.735-4.427-1.23-6.683-1.373c-2.258-0.137-4.529,0.047-6.787,0.394c-0.698,0.11-1.353-0.368-1.463-1.066
			c-0.109-0.698,0.368-1.353,1.066-1.463C193.158,357.803,193.202,357.799,193.239,357.796z"/>
		<g>
			<path fill="#F8BBC1" d="M188.546,359.81c2.4,0.51,5.435,1.537,7.409,2.806l-1.938-3.609l0.819-4.013
				C193.31,356.778,190.698,358.633,188.546,359.81z"/>
		</g>
	</g>
	<g id="arrow-25_00000152959292684053046400000012827741405039260081_">
		<path fill="#F8BBC1" d="M190.781,367.141c2.667,0.16,5.327,0.541,7.909,1.187c2.583,0.64,5.08,1.535,7.463,2.611
			c4.772,2.159,9.096,4.975,13.32,7.874c-4.561-2.332-9.206-4.549-14.021-6.011c-2.404-0.729-4.845-1.257-7.297-1.536
			c-2.452-0.284-4.915-0.314-7.366-0.143c-1.099,0.077-2.053-0.752-2.13-1.851c-0.077-1.099,0.752-2.053,1.851-2.13
			c0.083-0.006,0.166-0.006,0.247-0.002L190.781,367.141z"/>
		<g>
			<path fill="#F8BBC1" d="M182.956,369.724c3.77,1.138,8.487,3.185,11.475,5.479l-2.616-6.031l1.847-6.308
				C190.981,365.511,186.555,368.128,182.956,369.724z"/>
		</g>
	</g>
	<g id="arrow-24_00000109009009579728013470000001591747557300463785_">
		<path fill="#F8BBC1" d="M190.131,380.077c4.288,0.922,8.756,1.856,12.866,3.768c4.12,1.879,7.657,4.654,10.854,7.657
			c-3.542-2.6-7.34-4.873-11.438-6.164c-4.086-1.325-8.387-1.695-12.762-2.091c-0.884-0.078-1.536-0.858-1.458-1.742
			c0.078-0.884,0.858-1.536,1.742-1.458C189.997,380.053,190.071,380.064,190.131,380.077z"/>
		<g>
			<path fill="#F8BBC1" d="M183.452,380.648c2.854,1.599,6.313,4.106,8.325,6.503l-1.041-5.362l2.63-4.786
				C190.718,378.67,186.658,379.999,183.452,380.648z"/>
		</g>
	</g>
	<g id="arrow-23_00000142170851189435421390000012038881547919143855_">
		<path fill="#EE4860" d="M473.402,96.378c0.425,3.945,1.222,7.855,2.506,11.615c1.282,3.758,3.053,7.362,5.324,10.658
			c2.267,3.298,5.032,6.277,8.168,8.846c3.134,2.573,6.628,4.737,10.316,6.529c-3.822-1.479-7.519-3.356-10.931-5.711
			c-3.412-2.35-6.531-5.184-9.189-8.434c-2.662-3.246-4.857-6.899-6.55-10.774c-1.695-3.877-2.892-7.966-3.693-12.12
			c-0.215-1.111,0.511-2.186,1.622-2.401s2.186,0.511,2.401,1.622C473.387,96.262,473.395,96.323,473.402,96.378z"/>
		<g>
			<path fill="#EE4860" d="M470.602,85.844c-1.489,5.245-4.218,11.822-7.326,16.01l8.291-3.759l8.775,2.415
				C476.617,96.859,472.893,90.791,470.602,85.844z"/>
		</g>
	</g>
</g>
<style>
#g-ai2html-responsive-_960-interactions-img rect, #g-ai2html-responsive-_960-interactions-img circle, #g-ai2html-responsive-_960-interactions-img path, #g-ai2html-responsive-_960-interactions-img line, #g-ai2html-responsive-_960-interactions-img polyline { vector-effect: non-scaling-stroke; }
</style>
</svg>

