<?xml version="1.0" encoding="utf-8"?>
<!-- Generator: Adobe Illustrator 27.8.1, SVG Export Plug-In . SVG Version: 6.00 Build 0)  -->
<svg version="1.2" baseProfile="tiny" id="g-ai2html-responsive-_700-interactions-img" xmlns="http://www.w3.org/2000/svg" xmlns:xlink="http://www.w3.org/1999/xlink"
	 x="0px" y="0px" viewBox="0 0 700 393.75" overflow="visible" xml:space="preserve">
<g>
	
		<path id="bubble-10_00000147914810924418785140000015333584523760126592_" fill="#0072BB" fill-opacity="0.3" stroke="#0072BB" stroke-width="0.5" stroke-miterlimit="10" d="
		M337.58,12.889c8.574,0,15.525,6.952,15.525,15.527s-6.951,15.527-15.525,15.527c-8.574,0-15.525-6.952-15.525-15.527
		S329.006,12.889,337.58,12.889L337.58,12.889"/>
	
		<path id="bubble-9_00000044885801464335168590000004534336389058516662_" fill="#0072BB" fill-opacity="0.3" stroke="#0072BB" stroke-width="0.5" stroke-miterlimit="10" d="
		M346.43,352.806c8.017,0,14.515,6.499,14.515,14.517c0,8.018-6.499,14.517-14.515,14.517c-8.017,0-14.515-6.499-14.515-14.517
		C331.914,359.306,338.413,352.806,346.43,352.806L346.43,352.806"/>
	
		<path id="bubble-8_00000021827840500598323680000006086408688416939154_" fill="#0072BB" fill-opacity="0.3" stroke="#0072BB" stroke-width="0.5" stroke-miterlimit="10" d="
		M457.587,303.641c2.881,0,5.216,2.336,5.216,5.217s-2.335,5.217-5.216,5.217c-2.881,0-5.216-2.336-5.216-5.217
		S454.706,303.641,457.587,303.641L457.587,303.641"/>
	
		<path id="bubble-7_00000143578137349549527920000000460543549028589966_" fill="#0072BB" fill-opacity="0.3" stroke="#0072BB" stroke-width="0.5" stroke-miterlimit="10" d="
		M138.568,350.394c2.073,0,3.754,1.681,3.754,3.754c0,2.073-1.681,3.754-3.754,3.754s-3.754-1.681-3.754-3.754
		C134.814,352.075,136.495,350.394,138.568,350.394L138.568,350.394"/>
	
		<path id="bubble-6_00000089542318009090119380000007399269353787127691_" fill="#0072BB" fill-opacity="0.3" stroke="#0072BB" stroke-width="0.5" stroke-miterlimit="10" d="
		M63.207,229.02c9.845,0,17.825,7.982,17.825,17.827s-7.981,17.827-17.825,17.827s-17.825-7.982-17.825-17.827
		S53.363,229.02,63.207,229.02L63.207,229.02"/>
	<g id="arrow-22_00000161616248785170436830000016594636416035804839_">
		<path fill="#EE4860" d="M335.299,71.525c-1.242,5.915-3.741,11.655-7.648,16.236c-1.937,2.292-4.191,4.287-6.644,5.941
			c-2.453,1.658-5.099,2.981-7.831,4.025c5.256-2.557,9.948-6.251,13.206-10.945c3.293-4.673,5.101-10.19,5.756-15.787
			c0.103-0.88,0.9-1.51,1.78-1.407s1.51,0.9,1.407,1.78c-0.006,0.048-0.013,0.095-0.023,0.141L335.299,71.525z"/>
		<g>
			<path fill="#EE4860" d="M334.404,62.594c-1.874,3.938-4.904,8.762-7.914,11.652l7.041-1.859l6.6,3.075
				C337.679,72.086,335.551,66.802,334.404,62.594z"/>
		</g>
	</g>
	<g id="arrow-21_00000061429099669433799970000008931489955798404754_">
		<path fill="#EE4860" d="M436.32,268.41c-2.298-0.251-4.619-0.504-6.947-1.041c-0.581-0.109-1.161-0.323-1.737-0.48
			c-0.571-0.202-1.144-0.421-1.696-0.678c-1.099-0.544-2.144-1.226-3.005-2.089c-1.772-1.692-2.845-3.835-3.79-5.936
			c-0.916-2.129-1.641-4.313-2.351-6.497c0.908,2.109,1.832,4.215,2.923,6.217c1.111,1.973,2.353,3.923,4.064,5.264
			c1.686,1.369,3.756,2.049,5.95,2.322c2.188,0.295,4.459,0.338,6.739,0.374l0.01,0c0.704,0.011,1.266,0.591,1.255,1.296
			c-0.011,0.704-0.591,1.266-1.296,1.255C436.399,268.417,436.358,268.415,436.32,268.41z"/>
		<g>
			<path fill="#EE4860" d="M441.277,267.405c-2.237-1.007-4.986-2.653-6.647-4.312l1.13,3.938l-1.651,3.748
				C435.978,269.36,438.924,268.1,441.277,267.405z"/>
		</g>
	</g>
	<g id="arrow-20_00000074423293571419074080000008166482120330640288_">
		<path fill="#F28290" d="M404.939,312.312c1.656-5.721,2.154-11.825,1.427-17.802c-0.731-5.964-2.722-11.868-6.26-16.841
			c3.785,4.787,6.118,10.66,7.168,16.706c1.047,6.061,0.865,12.354-0.56,18.405c-0.116,0.494-0.611,0.8-1.104,0.683
			c-0.494-0.116-0.8-0.611-0.683-1.104C404.93,312.346,404.935,312.326,404.939,312.312z"/>
		<g>
			<path fill="#F28290" d="M404.873,315.663c0.982-1.308,2.454-2.856,3.776-3.694l-2.726,0.16l-2.197-1.621
				C404.375,311.93,404.765,314.031,404.873,315.663z"/>
		</g>
	</g>
	<g id="arrow-19_00000038400834324737599500000002899645992128490893_">
		<path fill="#B41F38" d="M370.26,266.82c0.378-5.418,0.22-10.939-0.46-16.404c-0.346-2.732-0.83-5.454-1.514-8.133
			c-0.689-2.676-1.569-5.318-2.825-7.815c1.569,2.313,2.808,4.862,3.858,7.477c1.046,2.62,1.9,5.32,2.616,8.058
			c1.42,5.482,2.327,11.11,2.673,16.84c0.073,1.201-0.842,2.233-2.043,2.306s-2.233-0.842-2.306-2.043
			C370.253,267.014,370.255,266.909,370.26,266.82z"/>
		<g>
			<path fill="#B41F38" d="M371.044,279.432c2.777-5.723,7.247-12.724,11.669-16.905l-10.289,2.634l-9.591-4.557
				C366.372,265.554,369.417,273.283,371.044,279.432z"/>
		</g>
	</g>
	<g id="arrow-18_00000170239654739804413190000004959399936951136441_">
		<path fill="#F8BBC1" d="M297.54,332.577c-0.462-6.346-0.134-12.685,0.889-18.91c1.049-6.206,2.829-12.342,5.854-17.848
			c-2.75,5.647-4.207,11.803-4.943,17.977c-0.711,6.183-0.72,12.46,0.03,18.587l0.002,0.015c0.062,0.505-0.297,0.964-0.802,1.026
			c-0.505,0.062-0.964-0.297-1.026-0.802C297.543,332.608,297.541,332.591,297.54,332.577z"/>
		<g>
			<path fill="#F8BBC1" d="M298.914,335.703c0.356-1.596,1.061-3.613,1.92-4.921l-2.419,1.268l-2.67-0.573
				C296.924,332.507,298.144,334.261,298.914,335.703z"/>
		</g>
	</g>
	<g id="arrow-17_00000041289580314199254800000008778788830668267931_">
		<path fill="#B41F38" d="M165.965,318.509c3.395-4.283,7.546-7.94,12.285-10.585c2.369-1.312,4.897-2.355,7.53-2.963
			c2.628-0.609,5.369-0.763,8.01-0.306c-2.663-0.307-5.356,0.004-7.896,0.745c-2.546,0.742-4.95,1.898-7.182,3.304
			c-4.46,2.829-8.281,6.613-11.289,10.886l-0.004,0.005c-0.289,0.41-0.855,0.509-1.266,0.22c-0.41-0.289-0.509-0.855-0.22-1.266
			C165.944,318.537,165.955,318.521,165.965,318.509z"/>
		<g>
			<path fill="#B41F38" d="M164.866,321.747c1.343-0.934,3.226-1.942,4.744-2.323l-2.639-0.704l-1.577-2.229
				C165.565,318.047,165.275,320.164,164.866,321.747z"/>
		</g>
	</g>
	<g id="arrow-16_00000015352410523562698590000008143407083824473242_">
		<path fill="#EE4860" d="M153.186,248.683c6.231,0.715,12.192,2.611,17.61,5.336c5.442,2.699,10.342,6.216,14.848,10.075
			c-5.014-3.179-10.295-5.903-15.826-7.714c-5.513-1.843-11.245-2.757-16.86-2.59c-1.415,0.042-2.596-1.071-2.638-2.486
			c-0.042-1.415,1.071-2.596,2.486-2.638c0.12-0.004,0.238,0.001,0.354,0.014L153.186,248.683z"/>
		<g>
			<path fill="#EE4860" d="M140.038,252.452c6.324,1.792,14.254,5.077,19.305,8.822l-4.537-9.993l2.906-10.581
				C153.314,245.194,146.001,249.687,140.038,252.452z"/>
		</g>
	</g>
	<g id="arrow-15_00000170250825061258054910000006674118815857496233_">
		<path fill="#F8BBC1" d="M142.315,260.51c1.672-0.01,3.371,0.126,5.015,0.51c1.646,0.376,3.208,0.984,4.675,1.696
			c2.927,1.447,5.62,3.161,8.426,4.726c-2.97-1.203-5.899-2.585-8.881-3.621c-1.492-0.507-2.999-0.881-4.515-1.033
			c-1.516-0.16-3.041-0.092-4.564,0.107c-0.656,0.086-1.257-0.377-1.343-1.033c-0.086-0.656,0.377-1.257,1.033-1.343
			c0.047-0.006,0.095-0.01,0.141-0.01H142.315z"/>
		<g>
			<path fill="#F8BBC1" d="M137.546,262.362c2.386,0.571,5.395,1.673,7.336,2.992l-1.846-3.657l0.92-3.991
				C142.385,259.45,139.727,261.239,137.546,262.362z"/>
		</g>
	</g>
	<g id="arrow-14_00000072241390306856131250000015705472869335903110_">
		<path fill="#F8BBC1" d="M139.758,267.609c3.811,0.292,7.549,1.327,10.91,2.921c3.376,1.583,6.437,3.606,9.429,5.688
			c-3.255-1.638-6.566-3.196-9.986-4.238c-3.416-1.055-6.924-1.491-10.396-1.264c-0.859,0.056-1.6-0.594-1.656-1.453
			s0.595-1.6,1.453-1.656c0.071-0.005,0.142-0.004,0.211,0L139.758,267.609z"/>
		<g>
			<path fill="#F8BBC1" d="M133.47,269.59c3.011,0.926,6.776,2.584,9.156,4.432l-2.068-4.836l1.505-5.039
				C139.908,266.254,136.356,268.329,133.47,269.59z"/>
		</g>
	</g>
	<g id="arrow-13_00000146495000762483087590000016386874270625691267_">
		<path fill="#F8BBC1" d="M138.843,277.136c3.105,0.673,6.34,1.367,9.311,2.766c2.978,1.375,5.533,3.391,7.843,5.569
			c-2.568-1.878-5.318-3.52-8.281-4.458c-2.955-0.962-6.064-1.235-9.23-1.515c-0.658-0.058-1.145-0.638-1.087-1.296
			c0.058-0.658,0.638-1.145,1.296-1.088C138.742,277.117,138.797,277.126,138.843,277.136z"/>
		<g>
			<path fill="#F8BBC1" d="M133.831,277.556c2.14,1.199,4.735,3.08,6.244,4.877l-0.78-4.021l1.973-3.589
				C139.281,276.072,136.236,277.069,133.831,277.556z"/>
		</g>
	</g>
	<g id="arrow-12_00000078750293761412196930000013764072797276874154_">
		<path fill="#EE4860" d="M347.478,70.995c0.654,5.597,2.463,11.114,5.756,15.787c3.258,4.694,7.949,8.388,13.206,10.945
			c-2.732-1.045-5.378-2.367-7.831-4.025c-2.453-1.655-4.706-3.649-6.644-5.941c-3.906-4.581-6.406-10.32-7.648-16.236l-0.003-0.014
			c-0.182-0.867,0.373-1.718,1.241-1.9c0.867-0.182,1.718,0.373,1.9,1.24C347.465,70.899,347.473,70.948,347.478,70.995z"/>
		<g>
			<path fill="#EE4860" d="M345.212,62.594c-1.148,4.208-3.276,9.491-5.729,12.868l6.602-3.075l7.04,1.859
				C350.114,71.357,347.085,66.533,345.212,62.594z"/>
		</g>
	</g>
</g>
<style>
#g-ai2html-responsive-_700-interactions-img rect, #g-ai2html-responsive-_700-interactions-img circle, #g-ai2html-responsive-_700-interactions-img path, #g-ai2html-responsive-_700-interactions-img line, #g-ai2html-responsive-_700-interactions-img polyline { vector-effect: non-scaling-stroke; }
</style>
</svg>

