<?xml version="1.0" encoding="utf-8"?>
<!-- Generator: Adobe Illustrator 27.8.1, SVG Export Plug-In . SVG Version: 6.00 Build 0)  -->
<svg version="1.2" baseProfile="tiny" id="g-returnee_movements-_960-interactions-img" xmlns="http://www.w3.org/2000/svg" xmlns:xlink="http://www.w3.org/1999/xlink"
	 x="0px" y="0px" viewBox="0 0 960 540" overflow="visible" xml:space="preserve">
<g>
	<g id="legend_00000082337003037902145280000004710338066568448392_">
		
			<rect x="4.732" y="423.612" fill-rule="evenodd" fill="#FFFFFF" stroke="#808184" stroke-width="0.3" stroke-miterlimit="10" width="131.598" height="112.456"/>
		
			<line fill="none" stroke="#58595B" stroke-width="0.5" stroke-miterlimit="10" x1="49.333" y1="497.111" x2="84.113" y2="497.111"/>
		
			<line fill="none" stroke="#58595B" stroke-width="0.5" stroke-miterlimit="10" x1="49.333" y1="476.766" x2="84.113" y2="476.766"/>
		
			<line fill="none" stroke="#58595B" stroke-width="0.5" stroke-miterlimit="10" x1="49.333" y1="456.826" x2="84.113" y2="456.826"/>
		<path fill="none" stroke="#58595B" stroke-width="0.5" stroke-miterlimit="10" d="M47.977,497.111
			c7.674,0,13.895,6.222,13.895,13.896c0,7.675-6.221,13.896-13.895,13.896s-13.895-6.222-13.895-13.896
			C34.082,503.333,40.303,497.111,47.977,497.111L47.977,497.111"/>
		<path fill="none" stroke="#58595B" stroke-width="0.5" stroke-miterlimit="10" d="M47.977,476.766
			c13.291,0,24.066,10.776,24.066,24.069s-10.775,24.069-24.066,24.069s-24.066-10.776-24.066-24.069S34.686,476.766,47.977,476.766
			L47.977,476.766"/>
		<path fill="none" stroke="#58595B" stroke-width="0.5" stroke-miterlimit="10" d="M47.977,456.826
			c18.797,0,34.034,15.24,34.034,34.038s-15.238,34.038-34.034,34.038s-34.034-15.24-34.034-34.038S29.18,456.826,47.977,456.826
			L47.977,456.826"/>
	</g>
	<g id="movement_00000039853861521422733270000005155431865870093480_">
		
			<line id="path-1_00000135670608228492347790000007709122983915649980_" fill="none" stroke="#0973B9" stroke-width="39" stroke-linecap="round" stroke-linejoin="round" x1="615.251" y1="52.213" x2="604.361" y2="100.695"/>
		
			<path id="path-19_00000036239151052275570590000010771438757136602800_" fill="none" stroke="#0973B9" stroke-width="7" stroke-linecap="round" stroke-linejoin="round" d="
			M574.548,356.749c-9.203,25.165-23.196,53.739-44.474,82.497"/>
		
			<path id="path-7_00000087406341178288044080000004501857983771864705_" fill="none" stroke="#0973B9" stroke-width="8" stroke-linecap="round" stroke-linejoin="round" d="
			M592.225,272.299c0,0,0.086,35.876-17.677,84.449"/>
		
			<path id="path-3_00000095331553952848924280000009757701379025811868_" fill="none" stroke="#0973B9" stroke-width="13" stroke-linecap="round" stroke-linejoin="round" d="
			M607.079,94.625c-25.224,99.703-8.945,121.222-14.642,183.377"/>
		
			<path id="path-2_00000051355731014811763000000011074983044245329843_" fill="none" stroke="#0973B9" stroke-width="23" stroke-linecap="round" stroke-linejoin="round" d="
			M610.432,95.545c0,0,0.278,54.789,26.765,72.779"/>
		
			<path id="path-6_00000116222385213469056540000002787345194055682495_" fill="none" stroke="#0973B9" stroke-width="5" stroke-linecap="round" stroke-linejoin="round" d="
			M592.225,280.166c0,0,29.767,21.44,34.138,49.186"/>
		
			<path id="path-16_00000127028780396740310990000005458529403360612232_" fill="none" stroke="#0973B9" stroke-linecap="round" stroke-linejoin="round" d="
			M574.819,356.848c0,0,42.319,21.523,51.543,57.891"/>
		
			<path id="path-13_00000096039407645276407740000004048811552056118912_" fill="none" stroke="#0973B9" stroke-width="5" stroke-linecap="round" stroke-linejoin="round" d="
			M382.936,207.124c-55.648,24.72-65.455,0.113-95.146,0.056"/>
		
			<path id="path-4_00000140695287466660040420000009036207721801036697_" fill="none" stroke="#0973B9" stroke-width="16" stroke-linecap="round" stroke-linejoin="round" d="
			M596.863,91.283c-7.953,20.611-23.117,49.583-39.449,64.839c-8.011,7.484-17.042,12.397-27.239,16.177
			c-11.312,4.194-22.385,5.799-32.427,13.169"/>
		
			<path id="path-5_00000044894088334756032880000005761126259085301924_" fill="none" stroke="#0973B9" stroke-width="12" stroke-linecap="round" stroke-linejoin="round" d="
			M498.072,185.791c0,0-8.767,36.159-37.411,37.392"/>
		
			<path id="path-12_00000041262163156017105060000011160846359210876588_" fill="none" stroke="#0973B9" stroke-width="4" stroke-linecap="round" stroke-linejoin="round" d="
			M382.936,207.124c0,0,13.235,17.051,3.459,53.086"/>
		
			<path id="path-18_00000175305621608648406500000012338715159793460874_" fill="none" stroke="#0973B9" stroke-width="4.5" stroke-linecap="round" stroke-linejoin="round" d="
			M376.336,321.18c-14.962-2.058-29.063-7.889-41.69-16.422"/>
		
			<path id="path-17_00000137812944269240267970000000843351628979741604_" fill="none" stroke="#0973B9" stroke-width="5" stroke-linecap="round" stroke-linejoin="round" d="
			M427.468,294.469c-1.935,2.144-3.674,4.475-5.162,7.023c-3.424,5.865-6.767,11.976-12.75,15.608
			c-6.671,4.049-14.926,5.008-22.581,4.892c-3.588-0.054-7.137-0.329-10.639-0.811"/>
		
			<path id="path-8_00000054237264559518236450000015450844036248422582_" fill="none" stroke="#0973B9" stroke-width="6" stroke-linecap="round" stroke-linejoin="round" d="
			M601.863,93.439c0,0-34.657,116.352-68.365,149.989c-8.899,8.88-22.071,12.769-33.734,16.895
			c-14.103,4.99-28.488,9.245-42.272,15.1c-10.79,4.583-22.066,10.233-30.022,19.046"/>
		
			<path id="path-10_00000122690472115918492670000002290536315810301312_" fill="none" stroke="#0973B9" stroke-width="3" stroke-linecap="round" stroke-linejoin="round" d="
			M418.937,176.791c0,0-18.876-25.557-49.096-13.88"/>
		
			<path id="path-11_00000069395102583115591320000008393950388645378973_" fill="none" stroke="#0973B9" stroke-width="8" stroke-linecap="round" stroke-linejoin="round" d="
			M416.566,175.926c-17.387,7.573-15.469,17.969-33.63,31.198"/>
		
			<path id="path-14_00000168097707345721064490000012096781798053895592_" fill="none" stroke="#0973B9" stroke-linecap="round" stroke-linejoin="round" d="
			M377.877,321.376c0,0-13.879,14.515-19.061,30.063c-5.183,15.548-5.183,34.391-5.183,34.391"/>
		
			<path id="path-15_00000142879613742707263200000003359042042686353068_" fill="none" stroke="#0973B9" stroke-linecap="round" stroke-linejoin="round" d="
			M427.468,294.469c2.441,13.766,7.013,24.081,32.076,32.648"/>
		
			<path id="path-9_00000060752321746476938920000002691239550177647530_" fill="none" stroke="#0973B9" stroke-width="10" stroke-linecap="round" stroke-linejoin="round" d="
			M498.069,185.799c-24.776-8.976-55.513-21.194-81.503-9.873"/>
	</g>
	<g id="size_00000031171478188949219160000010644208439822702726_">
		
			<path id="bubble-1_00000141449247451087020360000010889180365134120629_" fill="#0072BC" fill-opacity="0.57" stroke="#0072BC" stroke-width="0.5" stroke-miterlimit="10" d="
			M640.899,137.698c19.144,0,34.664,15.52,34.664,34.664s-15.52,34.664-34.664,34.664s-34.664-15.52-34.664-34.664
			S621.755,137.698,640.899,137.698L640.899,137.698"/>
		
			<path id="bubble-2_00000062873696573583306530000017315217430572445363_" fill="#0072BC" fill-opacity="0.57" stroke="#0072BC" stroke-width="0.5" stroke-miterlimit="10" d="
			M455.752,202.487c11.754,0,21.283,9.529,21.283,21.283s-9.529,21.283-21.283,21.283s-21.283-9.529-21.283-21.283
			S443.998,202.487,455.752,202.487L455.752,202.487"/>
		
			<path id="bubble-3_00000106848975088029961860000003186620228234914999_" fill="#0072BC" fill-opacity="0.57" stroke="#0072BC" stroke-width="0.5" stroke-miterlimit="10" d="
			M522.207,424.612c10.431,0,18.888,8.456,18.888,18.888s-8.456,18.888-18.888,18.888c-10.431,0-18.888-8.456-18.888-18.888
			S511.775,424.612,522.207,424.612L522.207,424.612"/>
		
			<path id="bubble-4_00000100346362212521889690000015990996569024295058_" fill="#0072BC" fill-opacity="0.57" stroke="#0072BC" stroke-width="0.5" stroke-miterlimit="10" d="
			M281.385,196.66c6.899,0,12.492,5.593,12.492,12.492s-5.593,12.492-12.492,12.492c-6.899,0-12.492-5.593-12.492-12.492
			S274.486,196.66,281.385,196.66L281.385,196.66"/>
		
			<path id="bubble-5_00000054976414241889968660000010874772398108569515_" fill="#0072BC" fill-opacity="0.57" stroke="#0072BC" stroke-width="0.5" stroke-miterlimit="10" d="
			M626.479,321.625c5.924,0,10.726,4.802,10.726,10.726c0,5.924-4.802,10.726-10.726,10.726s-10.726-4.802-10.726-10.726
			C615.753,326.427,620.555,321.625,626.479,321.625L626.479,321.625"/>
		
			<path id="bubble-6_00000139998097151371770690000004088203114880221849_" fill="#0072BC" fill-opacity="0.57" stroke="#0072BC" stroke-width="0.5" stroke-miterlimit="10" d="
			M331.693,292.645c5.391,0,9.761,4.37,9.761,9.761s-4.37,9.761-9.761,9.761c-5.391,0-9.761-4.37-9.761-9.761
			S326.302,292.645,331.693,292.645L331.693,292.645"/>
		
			<path id="bubble-7_00000096027776218685146150000001387873187951159951_" fill="#0072BC" fill-opacity="0.57" stroke="#0072BC" stroke-width="0.5" stroke-miterlimit="10" d="
			M386.465,252.759c4.743,0,8.588,3.845,8.588,8.588s-3.845,8.588-8.588,8.588s-8.588-3.845-8.588-8.588
			S381.722,252.759,386.465,252.759L386.465,252.759"/>
		
			<path id="bubble-8_00000067199290139171826990000004482310474274228159_" fill="#0072BC" fill-opacity="0.57" stroke="#0072BC" stroke-width="0.5" stroke-miterlimit="10" d="
			M366.993,156.642c3.463,0,6.27,2.807,6.27,6.27c0,3.463-2.807,6.27-6.27,6.27c-3.463,0-6.27-2.807-6.27-6.27
			C360.723,159.449,363.53,156.642,366.993,156.642L366.993,156.642"/>
		
			<path id="bubble-9_00000111883035485975908520000000030777324935033221_" fill="#0072BC" fill-opacity="0.57" stroke="#0072BC" stroke-width="0.5" stroke-miterlimit="10" d="
			M460.314,326.282c0.617,0,1.117,0.5,1.117,1.117c0,0.617-0.5,1.117-1.117,1.117s-1.117-0.5-1.117-1.117
			C459.197,326.783,459.697,326.282,460.314,326.282L460.314,326.282"/>
		
			<path id="bubble-10_00000121274901482590972610000013644242056121688987_" fill="#0072BC" fill-opacity="0.57" stroke="#0072BC" stroke-width="0.5" stroke-miterlimit="10" d="
			M626.479,414.621c0.617,0,1.117,0.5,1.117,1.117s-0.5,1.117-1.117,1.117c-0.617,0-1.117-0.5-1.117-1.117
			S625.862,414.621,626.479,414.621L626.479,414.621"/>
		
			<path id="bubble-11_00000029733341152549783750000015541762234444086703_" fill="#0072BC" fill-opacity="0.57" stroke="#0072BC" stroke-width="0.5" stroke-miterlimit="10" d="
			M353.633,386.519c0.537,0,0.972,0.435,0.972,0.972s-0.435,0.972-0.972,0.972s-0.972-0.435-0.972-0.972
			S353.096,386.519,353.633,386.519L353.633,386.519"/>
	</g>
</g>
<style>
#g-returnee_movements-_960-interactions-img rect, #g-returnee_movements-_960-interactions-img circle, #g-returnee_movements-_960-interactions-img path, #g-returnee_movements-_960-interactions-img line, #g-returnee_movements-_960-interactions-img polyline { vector-effect: non-scaling-stroke; }
</style>
</svg>

