<?xml version="1.0" encoding="utf-8"?>
<!-- Generator: Adobe Illustrator 27.8.1, SVG Export Plug-In . SVG Version: 6.00 Build 0)  -->
<svg version="1.2" baseProfile="tiny" id="g-returnee_movements-_960-interactions-img" xmlns="http://www.w3.org/2000/svg" xmlns:xlink="http://www.w3.org/1999/xlink"
	 x="0px" y="0px" viewBox="0 0 960 540" overflow="visible" xml:space="preserve">
<g>
	<g id="movement_00000049211585306116999650000001830940708662637238_">
		
			<path id="path-1_00000127754351657216554630000011088539420275163024_" fill="none" stroke="#0973B9" stroke-width="31" stroke-linejoin="round" d="
			M614.376,33.362c0,0-5.928,24.379-14.595,66.039"/>
		
			<path id="path-7_00000069387756331042596700000010732374575423982753_" fill="none" stroke="#0973B9" stroke-width="8" stroke-linejoin="round" d="
			M592.225,272.299c0,0,0.198,82.678-62.151,166.947"/>
		
			<path id="path-3_00000119833008051221144210000000354561243186479277_" fill="none" stroke="#0973B9" stroke-width="15" stroke-linejoin="round" d="
			M607.079,102.625c-25.224,99.703-8.945,113.222-14.642,175.377"/>
		
			<path id="path-2_00000122696597571960434390000005172852964178922901_" fill="none" stroke="#0973B9" stroke-width="23" stroke-linejoin="round" d="
			M607.432,72.459c0,0,29.765,43.044,29.765,80.779"/>
		
			<path id="path-6_00000126282725228619991800000002289125430095459771_" fill="none" stroke="#0973B9" stroke-width="5" stroke-linejoin="round" d="
			M592.225,280.166c0,0,29.767,21.44,34.138,49.186"/>
		
			<path id="path-16_00000048469073342396953900000005053416404556938896_" fill="none" stroke="#0973B9" stroke-linejoin="round" d="
			M574.819,356.848c0,0,42.319,21.523,51.543,57.891"/>
		
			<path id="path-13_00000176740761224523986390000007384047446813133240_" fill="none" stroke="#0973B9" stroke-width="5" stroke-linejoin="round" d="
			M382.936,207.124c-55.648,24.72-65.455,0.113-95.146,0.056"/>
		
			<path id="path-4_00000109030593695556113220000017779903544780036528_" fill="none" stroke="#0973B9" stroke-width="16" stroke-linejoin="round" d="
			M592.423,99.401c-7.953,20.611-18.677,41.464-35.009,56.72c-8.011,7.484-17.042,12.397-27.239,16.177
			c-11.312,4.194-22.385,5.799-32.427,13.169"/>
		
			<path id="path-5_00000052822828283455098490000007140609782984567968_" fill="none" stroke="#0973B9" stroke-width="13" stroke-linejoin="round" d="
			M498.072,185.791c0,0-8.767,36.159-37.411,37.392"/>
		
			<path id="path-12_00000130648773472342811320000018224759814893130431_" fill="none" stroke="#0973B9" stroke-width="4" stroke-linejoin="round" d="
			M382.936,207.124c0,0,13.235,17.051,3.459,53.086"/>
		
			<path id="path-8_00000165222627921959544490000002596061689417963429_" fill="none" stroke="#0973B9" stroke-width="5" stroke-linejoin="round" d="
			M596.863,110.439c0,0-29.657,99.352-63.365,132.989c-8.899,8.88-22.071,12.769-33.734,16.895
			c-14.103,4.99-28.488,9.245-42.272,15.1c-13.415,5.697-27.581,13.046-35.185,26.069c-3.424,5.865-6.767,11.976-12.75,15.608
			c-6.671,4.049-14.926,5.008-22.581,4.892c-18.919-0.287-36.746-6.703-52.328-17.233"/>
		
			<path id="path-10_00000103943305959354427350000017135748377900778117_" fill="none" stroke="#0973B9" stroke-width="3" stroke-linejoin="round" d="
			M418.937,176.791c0,0-18.876-25.557-49.096-13.88"/>
		
			<path id="path-11_00000148627069460600244300000017143410412863424163_" fill="none" stroke="#0973B9" stroke-width="8" stroke-linejoin="round" d="
			M416.566,175.926c-17.387,7.573-15.469,17.969-33.63,31.198"/>
		
			<path id="path-14_00000060710494817592796580000007314458434806378112_" fill="none" stroke="#0973B9" stroke-linejoin="round" d="
			M377.877,321.376c0,0-13.879,14.515-19.061,30.063c-5.183,15.548-5.183,34.391-5.183,34.391"/>
		
			<path id="path-15_00000043449985706271132760000004903241922885933471_" fill="none" stroke="#0973B9" stroke-linejoin="round" d="
			M427.469,293.158c0,0,28.423,11.944,32.075,33.959"/>
		
			<path id="path-9_00000127730889448417527860000010163225396757693872_" fill="none" stroke="#0973B9" stroke-width="11" stroke-linejoin="round" d="
			M498.069,185.799c-24.776-8.976-55.513-21.194-81.503-9.873"/>
	</g>
	<g id="size_00000120517408733185060580000016747741876670261393_">
		
			<path id="bubble-1_00000096779689979698919370000002940230120094775962_" fill="#0072BC" fill-opacity="0.57" stroke="#0072BC" stroke-width="0.5" stroke-miterlimit="10" d="
			M642.899,136.698c19.144,0,34.664,15.52,34.664,34.664s-15.52,34.664-34.664,34.664s-34.664-15.52-34.664-34.664
			S623.755,136.698,642.899,136.698L642.899,136.698"/>
		
			<path id="bubble-2_00000100383528217798363450000018118974498218896791_" fill="#0072BC" fill-opacity="0.57" stroke="#0072BC" stroke-width="0.5" stroke-miterlimit="10" d="
			M452.752,201.9c11.754,0,21.283,9.529,21.283,21.283c0,11.754-9.529,21.283-21.283,21.283s-21.283-9.529-21.283-21.283
			C431.469,211.429,440.998,201.9,452.752,201.9L452.752,201.9"/>
		
			<path id="bubble-3_00000080171314339559710010000006736923521866326702_" fill="#0072BC" fill-opacity="0.57" stroke="#0072BC" stroke-width="0.5" stroke-miterlimit="10" d="
			M522.207,424.612c10.431,0,18.888,8.456,18.888,18.888s-8.456,18.888-18.888,18.888c-10.431,0-18.888-8.456-18.888-18.888
			S511.775,424.612,522.207,424.612L522.207,424.612"/>
		
			<path id="bubble-4_00000122695013228704029960000013943462269991887778_" fill="#0072BC" fill-opacity="0.57" stroke="#0072BC" stroke-width="0.5" stroke-miterlimit="10" d="
			M281.385,196.66c6.899,0,12.492,5.593,12.492,12.492s-5.593,12.492-12.492,12.492c-6.899,0-12.492-5.593-12.492-12.492
			S274.486,196.66,281.385,196.66L281.385,196.66"/>
		
			<path id="bubble-5_00000171701978116777181690000004558019779395803041_" fill="#0072BC" fill-opacity="0.57" stroke="#0072BC" stroke-width="0.5" stroke-miterlimit="10" d="
			M626.362,325.15c5.924,0,10.726,4.802,10.726,10.726c0,5.924-4.802,10.726-10.726,10.726c-5.924,0-10.726-4.802-10.726-10.726
			C615.636,329.953,620.438,325.15,626.362,325.15L626.362,325.15"/>
		
			<path id="bubble-6_00000100377626671600615320000009202900874306263957_" fill="#0072BC" fill-opacity="0.57" stroke="#0072BC" stroke-width="0.5" stroke-miterlimit="10" d="
			M331.693,292.645c5.391,0,9.761,4.37,9.761,9.761s-4.37,9.761-9.761,9.761c-5.391,0-9.761-4.37-9.761-9.761
			S326.302,292.645,331.693,292.645L331.693,292.645"/>
		
			<path id="bubble-7_00000001643395931666979320000010844321895033737919_" fill="#0072BC" fill-opacity="0.57" stroke="#0072BC" stroke-width="0.5" stroke-miterlimit="10" d="
			M386.465,252.759c4.743,0,8.588,3.845,8.588,8.588s-3.845,8.588-8.588,8.588s-8.588-3.845-8.588-8.588
			S381.722,252.759,386.465,252.759L386.465,252.759"/>
		
			<path id="bubble-8_00000176008912210686921740000004275049062907417512_" fill="#0072BC" fill-opacity="0.57" stroke="#0072BC" stroke-width="0.5" stroke-miterlimit="10" d="
			M366.993,156.642c3.463,0,6.27,2.807,6.27,6.27c0,3.463-2.807,6.27-6.27,6.27c-3.463,0-6.27-2.807-6.27-6.27
			C360.723,159.449,363.53,156.642,366.993,156.642L366.993,156.642"/>
		
			<path id="bubble-9_00000003812384572319145510000001539758066748219582_" fill="#0072BC" fill-opacity="0.57" stroke="#0072BC" stroke-width="0.5" stroke-miterlimit="10" d="
			M459.544,328.234v-1.117c0.617,0,1.117,0.5,1.117,1.117s-0.5,1.117-1.117,1.117s-1.117-0.5-1.117-1.117s0.5-1.117,1.117-1.117l0,0
			V328.234z"/>
		
			<path id="bubble-10_00000083778260958802519800000002011830953885477270_" fill="#0072BC" fill-opacity="0.57" stroke="#0072BC" stroke-width="0.5" stroke-miterlimit="10" d="
			M626.479,415.738v-1.117c0.617,0,1.117,0.5,1.117,1.117s-0.5,1.117-1.117,1.117c-0.617,0-1.117-0.5-1.117-1.117
			s0.5-1.117,1.117-1.117l0,0V415.738z"/>
		
			<path id="bubble-11_00000049200890229684705170000005655430985144671142_" fill="#0072BC" fill-opacity="0.57" stroke="#0072BC" stroke-width="0.5" stroke-miterlimit="10" d="
			M353.633,389.91v-0.972c0.537,0,0.972,0.435,0.972,0.972c0,0.537-0.435,0.972-0.972,0.972s-0.972-0.435-0.972-0.972
			c0-0.537,0.435-0.972,0.972-0.972l0,0V389.91z"/>
	</g>
</g>
<style>
#g-returnee_movements-_960-interactions-img rect, #g-returnee_movements-_960-interactions-img circle, #g-returnee_movements-_960-interactions-img path, #g-returnee_movements-_960-interactions-img line, #g-returnee_movements-_960-interactions-img polyline { vector-effect: non-scaling-stroke; }
</style>
</svg>

